<svg version="1.1" viewBox="0 0 72 72" xmlns="http://www.w3.org/2000/svg" xmlns:xlink="http://www.w3.org/1999/xlink" id="emoji" overflow="hidden"><g id="line" stroke-miterlimit="10"><path d=" M 64.05 7.95 L 64.05 13.071 C 36.49 13.071 13.01 36.491 13.01 64.051 L 7.947 64.051 C 7.947 33.061 33.057 7.951 64.047 7.951 Z" stroke="#000000" stroke-width="2" stroke-linecap="round" stroke-linejoin="round" stroke-miterlimit="10" fill="none"/><path d=" M 64.05 13.07 L 64.05 18.19 C 39.65 18.19 18.19 39.65 18.19 64.05 L 13.016 64.05 C 13.016 36.49 36.486 13.07 64.046 13.07 Z" stroke="#000000" stroke-width="2" stroke-linecap="round" stroke-linejoin="round" stroke-miterlimit="10" fill="none"/><path d=" M 64.05 18.19 L 64.05 23.311 C 42.54 23.311 23.31 42.561 23.31 64.051 L 18.189 64.051 C 18.189 39.651 39.649 18.191 64.049 18.191 Z" stroke="#000000" stroke-width="2" stroke-linecap="round" stroke-linejoin="round" stroke-miterlimit="10" fill="none"/><path d=" M 64.05 23.31 L 64.05 28.431 C 45.17 28.431 28.44 45.261 28.44 64.051 L 23.309 64.051 C 23.309 42.571 42.539 23.311 64.049 23.311 Z" stroke="#000000" stroke-width="2" stroke-linecap="round" stroke-linejoin="round" stroke-miterlimit="10" fill="none"/><path d=" M 64.05 28.43 L 64.05 33.55 C 47.71 33.55 33.55 47.77 33.55 64.05 L 28.44 64.05 C 28.44 45.27 45.17 28.43 64.05 28.43 Z" stroke="#000000" stroke-width="2" stroke-linecap="round" stroke-linejoin="round" stroke-miterlimit="10" fill="none"/><path d=" M 64.05 33.55 L 64.05 38.671 C 50.03 38.671 38.67 50.031 38.67 64.051 L 33.549 64.051 C 33.549 47.771 47.709 33.551 64.049 33.551 Z" stroke="#000000" stroke-width="2" stroke-linecap="round" stroke-linejoin="round" stroke-miterlimit="10" fill="none"/></g></svg>