<svg version="1.1" viewBox="0 0 72 72" xmlns="http://www.w3.org/2000/svg" xmlns:xlink="http://www.w3.org/1999/xlink" id="emoji" overflow="hidden"><g id="line"><rect x="22.3576" y="23.2696" width="6.0019" height="6.0019"/><rect x="28.3595" y="17.2677" width="6.0019" height="6.0019"/><path d=" M 28.3595 29.2715 L 34.3614 29.2715 L 34.3614 32.9753 C 34.3614 33.3277 34.0758 33.6133 33.7234 33.6133 L 28.9031 33.6133 C 28.6029 33.6133 28.3595 33.3699 28.3595 33.0697 L 28.3595 29.2715 Z"/><path d=" M 28.3595 17.2677 L 25.2342 17.2677 C 25.2342 17.2677 26.6076 16.7425 26.8179 16.6469 C 28.0364 16.0932 28.3596 16.0261 28.3596 16.0261 L 28.3596 17.2676 Z"/><path d=" M 37.9977 17.2677 L 34.3615 17.2677 L 34.3615 15.8731 C 34.3615 15.8731 34.6745 15.7676 37.1009 16.7698 C 37.2503 16.8315 37.9976 17.2676 37.9976 17.2676 Z"/><rect x="34.3615" y="23.2696" width="6.0019" height="6.0019"/><path d=" M 46.3653 23.2696 L 40.3634 23.2696 L 40.3634 18.6459 L 45.6532 19.8106 C 46.0691 19.9022 46.3653 20.2707 46.3653 20.6965 L 46.3653 23.2696 Z"/><rect x="40.3634" y="29.2715" width="6.0019" height="6.0019"/><rect x="46.3653" y="23.2696" width="6.0019" height="6.0019"/><path d=" M 52.3672 20.3094 L 52.3672 20.3094 C 53.3306 20.3094 53.1301 21.0503 53.1301 22.0137 L 53.1016 22.3699 C 53.1016 22.9128 53.2919 23.2544 53.1286 23.2695 L 52.3672 23.2695 L 52.3672 20.3093 Z"/><path d=" M 52.3672 29.2715 L 53.1434 29.2715 C 53.2023 29.2715 53.25 29.3747 53.25 29.502 L 53.25 35.0604 C 53.25 35.1781 53.2059 35.2734 53.1515 35.2734 L 52.3672 35.2734 L 52.3672 29.2715 Z"/><path d=" M 46.3653 35.2734 L 52.3672 35.2734 L 52.3672 37.1892 C 52.3672 37.9274 51.7281 38.5257 50.9398 38.5257 L 47.8623 38.3322 C 47.0232 38.3322 46.3653 37.8888 46.3653 37.1031 L 46.3653 35.2733 Z"/><path d=" M 23.0844 17.488 C 25.9694 15.6897 31.5062 13.2554 37.5 16 C 41.189 17.6892 43.1344 20.6976 52.5405 20.1142 C 53.3291 20.0653 54 20.7109 54 21.5248 L 54 36.6501 C 54 37.2727 53.5765 37.7272 53.0352 38.0041 C 51.0882 39 45.7637 38.939 37.5 35 C 34.1347 33.3959 28.9297 32.4317 23.0418 36.4425" stroke="#000000" stroke-width="2" stroke-linecap="round" stroke-linejoin="round" fill="none"/><line x1="19.3271" y1="12.875" x2="19.3271" y2="59.8348" stroke="#000000" stroke-width="2" stroke-linecap="round" stroke-miterlimit="10" fill="none"/></g></svg>