<svg version="1.1" viewBox="0 0 164.5 162" xmlns="http://www.w3.org/2000/svg" xmlns:xlink="http://www.w3.org/1999/xlink" id="tracés_techniques" overflow="hidden"><defs id="defs8802"><linearGradient id="linearGradient9726"><stop offset="0" stop-color="#0377CD" stop-opacity="1"/><stop offset="1" stop-color="#FB8273" stop-opacity="1"/></linearGradient><linearGradient x1="83.8063" y1="123.872" x2="82.2279" y2="14.3242" gradientUnits="userSpaceOnUse" xlink:href="#linearGradient9726" id="linearGradient9728"></linearGradient><clipPath id="clipPath10405"><rect x="280.573" y="-25.693" width="84.3557" height="160.256" id="rect10407" stroke-width="2.32306" fill="#0000FF" fill-rule="evenodd"/></clipPath></defs><text id="text8818"></text><g id="g10401" display="inline"><path d=" M 20 117 L 20 45 L 82.25 9 L 144.47 45 L 144.47 117 L 82.25 153 Z" id="path10323" fill="url(#linearGradient9728)" fill-opacity="1"/><g id="g10365" transform="matrix(0.5,-0.866025,0.866025,0.5,-27.8847,112.471)"><g id="g10363"><path d=" M 32 114.22 L 32.47 114.48 L 30.92 117.2 L 30.45 116.93 Z M 32.58 113.22 L 33.05 113.49 L 32.76 114.01 L 32.29 113.74 Z" id="path10325" fill="#FFFFFF"/><path d=" M 33.19 114.87 L 33.62 115.12 L 33.4 115.5 C 33.5939 115.423 33.8013 115.385 34.01 115.39 C 34.1996 115.41 34.3833 115.467 34.55 115.56 C 34.8883 115.711 35.1044 116.049 35.1 116.42 C 35.071 116.669 34.9855 116.909 34.85 117.12 L 33.85 118.87 L 33.38 118.6 L 34.38 116.88 C 34.4674 116.748 34.5222 116.597 34.54 116.44 C 34.5621 116.223 34.4407 116.016 34.24 115.93 C 34.1529 115.877 34.0586 115.836 33.96 115.81 C 33.8107 115.76 33.6493 115.76 33.5 115.81 C 33.3818 115.85 33.2753 115.919 33.19 116.01 C 33.0866 116.13 32.9961 116.261 32.92 116.4 L 32.11 117.83 L 31.65 117.57 Z" id="path10327" fill="#FFFFFF"/><path d=" M 36.31 116.65 L 35.77 119.29 L 37.77 117.5 L 38.28 117.79 L 35.69 119.93 L 35.21 119.66 L 35.76 116.35 Z" id="path10329" fill="#FFFFFF"/><path d=" M 40.33 119.05 C 40.4519 119.224 40.5244 119.428 40.54 119.64 C 40.5488 119.841 40.5182 120.041 40.45 120.23 C 40.3655 120.446 40.2617 120.653 40.14 120.85 L 38.14 119.72 C 38.0001 119.955 37.9371 120.228 37.96 120.5 C 37.9866 120.749 38.1424 120.966 38.37 121.07 C 38.5809 121.206 38.8419 121.239 39.08 121.16 C 39.2107 121.112 39.3299 121.037 39.43 120.94 L 39.88 121.19 C 39.7981 121.302 39.6922 121.394 39.57 121.46 C 39.4459 121.539 39.3112 121.599 39.17 121.64 C 38.9506 121.699 38.7194 121.699 38.5 121.64 C 38.3662 121.592 38.2359 121.536 38.11 121.47 C 37.7803 121.285 37.5442 120.969 37.46 120.6 C 37.3775 120.17 37.4673 119.725 37.71 119.36 C 37.9256 118.96 38.2818 118.653 38.71 118.5 C 39.0945 118.359 39.5224 118.404 39.87 118.62 C 40.0526 118.728 40.2095 118.875 40.33 119.05 Z M 39.88 120.22 C 39.9676 120.05 40.0154 119.862 40.02 119.67 C 40.0246 119.376 39.8564 119.106 39.59 118.98 C 39.3936 118.864 39.1566 118.838 38.94 118.91 C 38.704 118.985 38.5045 119.146 38.38 119.36 Z" id="path10331" fill="#FFFFFF"/><path d=" M 41.59 119.67 L 42.02 119.92 L 41.8 120.31 C 41.9925 120.228 42.201 120.19 42.41 120.2 C 42.6006 120.215 42.7852 120.273 42.95 120.37 C 43.2883 120.521 43.5044 120.859 43.5 121.23 C 43.4723 121.477 43.3867 121.713 43.25 121.92 L 42.25 123.68 L 41.78 123.41 L 42.78 121.69 C 42.8597 121.552 42.9107 121.399 42.93 121.24 C 42.9459 121.024 42.8264 120.821 42.63 120.73 C 42.5448 120.675 42.4497 120.638 42.35 120.62 C 42.2007 120.57 42.0393 120.57 41.89 120.62 C 41.7743 120.661 41.6686 120.725 41.58 120.81 C 41.476 120.933 41.3855 121.067 41.31 121.21 L 40.5 122.64 L 40 122.4 Z" id="path10333" fill="#FFFFFF"/><path d=" M 44.48 121.34 L 44.94 121.61 L 43.39 124.33 L 42.93 124.06 Z M 45.06 120.34 L 45.53 120.6 L 45.23 121.12 L 44.77 120.86 Z" id="path10335" fill="#FFFFFF"/><path d=" M 47.46 123.4 C 47.5588 123.827 47.4755 124.277 47.23 124.64 C 47.0245 125.038 46.6943 125.357 46.29 125.55 C 45.8822 125.71 45.4213 125.658 45.06 125.41 C 44.7115 125.232 44.4644 124.904 44.39 124.52 C 44.3216 124.1 44.4106 123.669 44.64 123.31 C 44.8521 122.9 45.2083 122.583 45.64 122.42 C 46.0278 122.279 46.4588 122.323 46.81 122.54 C 47.1313 122.73 47.3648 123.039 47.46 123.4 Z M 46.14 125.05 C 46.3901 124.874 46.5984 124.645 46.75 124.38 C 46.8758 124.169 46.9543 123.934 46.98 123.69 C 47.0034 123.37 46.8289 123.069 46.54 122.93 C 46.298 122.78 45.992 122.78 45.75 122.93 C 45.4831 123.088 45.2651 123.316 45.12 123.59 C 44.9636 123.842 44.8837 124.134 44.89 124.43 C 44.9159 124.703 45.0829 124.942 45.33 125.06 C 45.5756 125.226 45.8986 125.222 46.14 125.05 Z" id="path10337" fill="#FFFFFF"/><path d=" M 47.74 125.68 C 47.6737 125.809 47.6459 125.955 47.66 126.1 C 47.723 126.357 47.9051 126.569 48.15 126.67 C 48.3063 126.767 48.4862 126.819 48.67 126.82 C 48.8351 126.831 48.9901 126.74 49.06 126.59 C 49.1295 126.484 49.1295 126.346 49.06 126.24 C 48.9712 126.105 48.8634 125.984 48.74 125.88 L 48.42 125.58 C 48.2593 125.435 48.1212 125.266 48.01 125.08 C 47.8842 124.871 47.8842 124.609 48.01 124.4 C 48.139 124.153 48.3754 123.979 48.65 123.93 C 48.9644 123.884 49.2849 123.955 49.55 124.13 C 49.9106 124.287 50.1693 124.613 50.24 125 C 50.2719 125.203 50.2331 125.412 50.13 125.59 L 49.7 125.35 C 49.7296 125.235 49.7296 125.115 49.7 125 C 49.6218 124.777 49.4555 124.596 49.24 124.5 C 49.1046 124.408 48.9433 124.363 48.78 124.37 C 48.658 124.374 48.5474 124.442 48.49 124.55 C 48.4203 124.671 48.4203 124.819 48.49 124.94 C 48.5592 125.045 48.6396 125.142 48.73 125.23 L 49 125.48 C 49.2099 125.655 49.392 125.86 49.54 126.09 C 49.6539 126.318 49.6347 126.59 49.49 126.8 C 49.3507 127.038 49.1191 127.208 48.85 127.27 C 48.5008 127.329 48.1424 127.25 47.85 127.05 C 47.5159 126.899 47.2591 126.617 47.14 126.27 C 47.0724 125.986 47.1115 125.687 47.25 125.43 Z" id="path10339" fill="#FFFFFF"/><path d=" M 53 126.55 C 53.0981 126.976 53.0187 127.424 52.78 127.79 C 52.5688 128.184 52.2403 128.502 51.84 128.7 C 51.4288 128.86 50.9651 128.808 50.6 128.56 C 50.2544 128.379 50.0085 128.052 49.93 127.67 C 49.8655 127.248 49.958 126.818 50.19 126.46 C 50.3994 126.046 50.756 125.725 51.19 125.56 C 51.5762 125.424 52.0035 125.472 52.35 125.69 C 52.6759 125.875 52.911 126.186 53 126.55 Z M 51.68 128.2 C 51.9319 128.026 52.1406 127.797 52.29 127.53 C 52.4158 127.319 52.4943 127.084 52.52 126.84 C 52.5434 126.52 52.3689 126.219 52.08 126.08 C 51.838 125.93 51.532 125.93 51.29 126.08 C 51.0253 126.24 50.8079 126.468 50.66 126.74 C 50.506 126.992 50.4295 127.285 50.44 127.58 C 50.4599 127.852 50.624 128.092 50.87 128.21 C 51.107 128.356 51.4068 128.352 51.64 128.2 Z" id="path10341" fill="#FFFFFF"/><path d=" M 54.73 126.09 C 54.9847 126.007 55.264 126.051 55.48 126.21 L 55.57 126.26 L 55.67 126.33 L 55.43 126.75 L 55.33 126.68 L 55.27 126.68 C 55.13 126.6 55.03 126.59 54.96 126.68 C 54.8169 126.84 54.6958 127.018 54.6 127.21 L 55.06 127.47 L 54.85 127.83 L 54.39 127.57 L 53.05 129.93 L 52.6 129.67 L 53.94 127.31 L 53.56 127.1 L 53.77 126.73 L 54.15 126.95 L 54.39 126.52 C 54.4645 126.35 54.5816 126.202 54.73 126.09 Z" id="path10343" fill="#FFFFFF"/><path d=" M 56 126.92 L 56.46 127.19 L 56 128 L 56.44 128.25 L 56.23 128.62 L 55.79 128.37 L 54.79 130.16 C 54.745 130.234 54.745 130.326 54.79 130.4 C 54.837 130.455 54.8949 130.499 54.96 130.53 L 55.03 130.53 L 55.12 130.53 L 54.91 130.9 L 54.73 130.84 L 54.54 130.74 C 54.33 130.62 54.21 130.48 54.2 130.33 C 54.1868 130.157 54.2326 129.984 54.33 129.84 L 55.33 128.03 L 54.96 127.82 L 55.17 127.44 L 55.54 127.65 Z" id="path10345" fill="#FFFFFF"/><path d=" M 57.15 128.58 L 56.45 131.03 L 58.21 129.19 L 58.72 129.48 L 58 131.92 L 59.78 130.1 L 60.24 130.37 L 57.89 132.64 L 57.42 132.37 L 58.07 129.94 L 56.32 131.75 L 55.85 131.47 L 56.62 128.29 Z" id="path10347" fill="#FFFFFF"/><path d=" M 61.55 132.53 C 61.6366 132.58 61.7434 132.58 61.83 132.53 C 61.8877 132.495 61.9331 132.442 61.96 132.38 C 62.0386 132.244 62.0386 132.076 61.96 131.94 C 61.8587 131.78 61.7174 131.649 61.55 131.56 C 61.3062 131.344 60.9333 131.366 60.7171 131.61 C 60.6873 131.644 60.6614 131.681 60.64 131.72 L 60.21 131.48 C 60.3452 131.191 60.6223 130.993 60.94 130.96 C 61.2352 130.952 61.5265 131.029 61.78 131.18 C 62.0588 131.322 62.2913 131.54 62.45 131.81 C 62.5843 132.038 62.5843 132.322 62.45 132.55 L 61.55 134.12 C 61.5367 134.166 61.5367 134.214 61.55 134.26 C 61.5709 134.306 61.6059 134.345 61.65 134.37 L 61.72 134.37 L 61.81 134.37 L 61.62 134.71 L 61.43 134.65 C 61.3762 134.631 61.3256 134.604 61.28 134.57 C 61.1357 134.506 61.0391 134.367 61.03 134.21 C 61.0292 134.107 61.0496 134.005 61.09 133.91 C 60.9062 133.984 60.7077 134.015 60.51 134 C 60.2763 133.992 60.0488 133.923 59.85 133.8 C 59.6206 133.677 59.4483 133.468 59.37 133.22 C 59.2911 132.983 59.3203 132.723 59.45 132.51 C 59.5652 132.278 59.7778 132.109 60.03 132.05 C 60.2876 132.006 60.5525 132.041 60.79 132.15 Z M 59.88 133.22 C 59.9321 133.351 60.0274 133.46 60.15 133.53 C 60.3158 133.622 60.5007 133.673 60.69 133.68 C 60.9878 133.712 61.2745 133.557 61.41 133.29 L 61.62 132.92 C 61.5343 132.938 61.4457 132.938 61.36 132.92 L 61.07 132.82 L 60.77 132.7 C 60.6342 132.639 60.4886 132.601 60.34 132.59 C 60.1578 132.584 59.9892 132.686 59.91 132.85 C 59.8415 132.961 59.8304 133.099 59.88 133.22 Z" id="path10349" fill="#FFFFFF"/><path d=" M 63.61 132.28 L 64.05 132.53 L 63.78 133 C 63.9177 132.911 64.07 132.846 64.23 132.81 C 64.4296 132.76 64.6409 132.788 64.82 132.89 L 64.87 132.89 L 65 133 L 64.73 133.48 L 64.66 133.43 L 64.58 133.43 C 64.3865 133.307 64.1476 133.277 63.93 133.35 C 63.7267 133.426 63.5566 133.571 63.45 133.76 L 62.55 135.33 L 62.1 135.07 Z" id="path10351" fill="#FFFFFF"/><path d=" M 67 134.3 C 67.1219 134.474 67.1944 134.678 67.21 134.89 C 67.2285 135.091 67.1976 135.294 67.12 135.48 C 67.0441 135.697 66.9435 135.906 66.82 136.1 L 64.82 134.97 C 64.6819 135.206 64.6158 135.477 64.63 135.75 C 64.6659 135.998 64.8235 136.212 65.05 136.32 C 65.2568 136.457 65.5153 136.49 65.75 136.41 C 65.8846 136.365 66.0052 136.286 66.1 136.18 L 66.56 136.44 C 66.4736 136.552 66.3645 136.644 66.24 136.71 C 66.1222 136.791 65.9897 136.849 65.85 136.88 C 65.6307 136.94 65.3993 136.94 65.18 136.88 C 65.0405 136.835 64.9063 136.774 64.78 136.7 C 64.452 136.52 64.2185 136.206 64.14 135.84 C 64.0588 135.411 64.1447 134.968 64.38 134.6 C 64.5925 134.197 64.9499 133.89 65.38 133.74 C 65.7645 133.599 66.1924 133.644 66.54 133.86 C 66.7236 133.971 66.8806 134.121 67 134.3 Z M 66.56 135.47 C 66.6427 135.298 66.6903 135.111 66.7 134.92 C 66.7002 134.624 66.5285 134.355 66.26 134.23 C 66.064 134.113 65.8265 134.087 65.61 134.16 C 65.374 134.235 65.1745 134.396 65.05 134.61 Z" id="path10353" fill="#FFFFFF"/><path d=" M 67.1 137.16 L 67.63 137.47 L 67.32 138.02 L 66.78 137.72 Z" id="path10355" fill="#FFFFFF"/><path d=" M 71.5 137.15 C 71.6 137.577 71.5166 138.027 71.27 138.39 C 71.0675 138.79 70.7365 139.111 70.33 139.3 C 69.9241 139.465 69.4624 139.416 69.1 139.17 C 68.7515 138.992 68.5043 138.664 68.43 138.28 C 68.3615 137.86 68.4506 137.429 68.68 137.07 C 68.8924 136.658 69.248 136.338 69.68 136.17 C 70.0655 136.028 70.4956 136.076 70.84 136.3 C 71.163 136.486 71.4 136.791 71.5 137.15 Z M 70.18 138.81 C 70.4294 138.632 70.6347 138.4 70.78 138.13 C 70.9153 137.923 70.9977 137.686 71.02 137.44 C 71.0375 137.122 70.8592 136.824 70.57 136.69 C 70.3311 136.542 70.0289 136.542 69.79 136.69 C 69.5249 136.854 69.3077 137.085 69.16 137.36 C 69.0049 137.609 68.925 137.897 68.93 138.19 C 68.9524 138.464 69.1152 138.706 69.36 138.83 C 69.6124 138.989 69.9357 138.981 70.18 138.81 Z" id="path10357" fill="#FFFFFF"/><path d=" M 72.59 137.42 L 73.02 137.67 L 72.76 138.14 C 72.8967 138.049 73.0493 137.984 73.21 137.95 C 73.4096 137.9 73.6209 137.928 73.8 138.03 L 73.8 138.03 C 73.837 138.048 73.8708 138.071 73.9 138.1 L 73.63 138.58 L 73.56 138.53 L 73.48 138.48 C 73.2845 138.352 73.0405 138.322 72.82 138.4 C 72.6212 138.479 72.4554 138.624 72.35 138.81 L 71.45 140.38 L 70.99 140.12 Z" id="path10359" fill="#FFFFFF"/><path d=" M 75.76 139.38 C 75.8204 139.51 75.8609 139.648 75.88 139.79 L 76.07 139.45 L 76.5 139.69 L 75.08 142.17 C 74.938 142.462 74.7247 142.713 74.46 142.9 C 74.0301 143.169 73.4795 143.149 73.07 142.85 C 72.8076 142.708 72.5922 142.492 72.45 142.23 C 72.3149 141.977 72.3149 141.673 72.45 141.42 L 72.91 141.68 C 72.8718 141.797 72.8718 141.923 72.91 142.04 C 72.9822 142.23 73.1257 142.384 73.31 142.47 C 73.5778 142.667 73.9423 142.667 74.21 142.47 C 74.4316 142.263 74.6115 142.015 74.74 141.74 C 74.5877 141.826 74.4146 141.867 74.24 141.86 C 73.7005 141.806 73.2447 141.437 73.08 140.92 C 72.9928 140.492 73.0869 140.046 73.34 139.69 C 73.5341 139.291 73.8689 138.977 74.28 138.81 C 74.6074 138.685 74.9732 138.711 75.28 138.88 C 75.4915 138.988 75.6606 139.164 75.76 139.38 Z M 75.54 139.9 C 75.4973 139.671 75.3542 139.473 75.15 139.36 C 74.8636 139.17 74.4843 139.198 74.23 139.43 C 74.0491 139.597 73.8971 139.793 73.78 140.01 C 73.6198 140.249 73.5425 140.533 73.56 140.82 C 73.5941 141.045 73.7309 141.241 73.93 141.35 C 74.2103 141.553 74.5897 141.553 74.87 141.35 C 75.0547 141.206 75.2079 141.026 75.32 140.82 C 75.5081 140.553 75.5868 140.224 75.54 139.9 Z" id="path10361" fill="#FFFFFF"/></g></g><text id="text10369" stroke="none" stroke-width="8.78209" stroke-miterlimit="4" stroke-dasharray="" fill="#FB8273" fill-opacity="1" font-family="din condensed" font-style="normal" font-variant="normal" font-weight="700" font-stretch="condensed" font-size="43.3739" text-anchor="start" letter-spacing="0" word-spacing="0" writing-mode="lr-tb" transform="matrix(1.04291,0,0,0.958857,0,0)" x="55.7358" y="101.251"><tspan stroke-width="8.78209" x="55.7358" y="101.251">RDM</tspan></text><g id="g10385" transform="matrix(0.430467,0,0,0.430467,-304.913,-41.4155)"><g id="g10377" transform="matrix(1,0,0,1,474.217,226.441)"><g id="g10375"><g id="g10373"><path d=" M 328.162 4.665 C 309.395 4.665 294.13 19.933 294.13 38.699 C 294.13 45.979 296.436 52.727 300.344 58.267 L 270.266 84.699 C 268.385 86.577 270.333 91.566 272.21 93.448 C 274.089 95.324 279.08 97.27 280.958 95.391 L 307.223 65.497 C 313.002 70.022 320.27 72.73 328.162 72.73 C 346.93 72.73 362.196 57.463 362.196 38.698 C 362.196 19.933 346.93 4.665 328.162 4.665 Z M 328.162 61.387 C 315.652 61.387 305.473 51.21 305.473 38.699 C 305.473 26.188 315.653 16.009 328.162 16.009 C 340.675 16.009 350.85 26.189 350.85 38.699 C 350.85 51.209 340.675 61.387 328.162 61.387 Z" id="path10371" fill="#FFFFFF"/></g></g></g><g id="g10383" transform="matrix(0.38742,0,0,0.38742,670.938,251.126)"><path d=" M 375.104 38.079 C 375.278 56.263 366.981 70.205 363.594 75.599 C 371.777 70.252 383.492 56.239 383.268 37.938 C 383.442 19.755 371.837 5.811 363.637 0.418 C 366.96 5.765 375.328 19.778 375.104 38.079 Z" id="path10379" fill="#FFFFFF"/><path d=" M 375.104 38.079 C 375.278 56.263 366.981 70.205 363.594 75.599 C 371.777 70.252 383.492 56.239 383.268 37.938 C 383.442 19.755 371.837 5.811 363.637 0.418 C 366.96 5.765 375.328 19.778 375.104 38.079 Z" id="path10381" stroke="#FFFFFF" fill="none"/></g></g><circle cx="114.423" cy="59.3294" r="4.30973" id="circle10387" stroke="#FFFFFF" stroke-width="2.26772" stroke-miterlimit="4" stroke-dasharray="" stroke-opacity="1" fill="none" fill-opacity="1" opacity="1"/><rect x="60.2696" y="54.0111" width="2.34281" height="10.7141" id="rect10389" stroke-width="0.166772" fill="#FFFFFF"/><path d=" M 101.318 8.433 L 113.62 36.814 L 125.814 8.325 L 140.814 8.325 L 113.512 72.427 L 86.21 8.433 Z" id="polygon10391" fill="#FFFFFF" transform="matrix(0.166772,0,0,0.166772,60.2696,52.6409)"/><path d=" M 218.848 43.075 L 254.537 74.124 L 254.537 7.961 L 239.34 7.961 L 239.34 36.974 L 203.65 8.076 L 203.65 72.318 L 218.848 72.318 Z" id="polygon10393" fill="#FFFFFF" transform="matrix(0.166772,0,0,0.166772,60.2696,52.6409)"/><path d=" M 27.65 8.242 L 27.65 72.484 L 42.848 72.484 L 42.848 43.241 L 78.537 74.29 L 78.537 8.127 L 63.34 8.127 L 63.34 37.14 Z" id="polygon10395" fill="#FFFFFF" transform="matrix(0.166772,0,0,0.166772,60.2696,52.6409)"/><rect x="104.964" y="54.0422" width="2.34298" height="10.7139" id="rect10397" stroke-width="0.166772" fill="#FFFFFF"/><path d=" M 166.976 20.927 L 192.991 20.927 L 192.991 7.974 L 149.193 7.974 L 149.193 72.079 L 193.649 72.079 L 193.649 59.346 L 166.976 59.346 L 166.976 45.624 L 191.783 45.624 L 191.783 32.672 L 166.976 32.672 Z" id="polygon10399" fill="#FFFFFF" transform="matrix(0.166772,0,0,0.166772,60.2696,52.6409)"/></g></svg>